<svg xmlns="http://www.w3.org/2000/svg" viewBox="0 0 478.94 345.02"><defs><style>.a{fill:#ed127a}</style></defs><title>feminist-frequency</title><path class="a" d="M4.45 318.34v8.95h12.2v4H4.45v12.41H0v-29.36h18.76v4H4.45zm22.97 25.36v-29.36h18.76v4h-14.3v8.58h12.2v4h-12.2v8.82h14.3v4H27.42zm49.61 0v-19.63l-6.76 14.31h-3.3l-6.93-14.31v19.63h-4.45v-29.36h4.45l8.57 18.26 8.41-18.26h4.5v29.36h-4.49zm15.38 0v-29.36h4.45v29.36h-4.45zm33.44 0l-13.56-20.66v20.66h-4.45v-29.36h4.08l13.6 20.62v-20.62h4.45v29.36h-4.08zm15.06 0v-29.36h4.45v29.36h-4.45zm23.21.24c-4.41 0-7.59-1-10.39-3.88l3-2.93a9.69 9.69 0 0 0 7.5 2.8c3.84 0 6.06-1.65 6.06-4.49a4 4 0 0 0-1.15-3.05 5.11 5.11 0 0 0-3.22-1.24l-3.46-.49a10 10 0 0 1-5.57-2.35 7.3 7.3 0 0 1-2.14-5.61c0-5.11 3.71-8.62 9.81-8.62a12.22 12.22 0 0 1 9.11 3.34l-2.84 2.8a8.62 8.62 0 0 0-6.39-2.27c-3.46 0-5.36 2-5.36 4.58a3.49 3.49 0 0 0 1.11 2.72 6.56 6.56 0 0 0 3.3 1.36l3.34.49c2.72.41 4.25 1.07 5.48 2.19a7.68 7.68 0 0 1 2.39 6c-.02 5.44-4.43 8.65-10.58 8.65zm29.78-25.6v25.36h-4.45v-25.36h-8.08v-4h20.61v4h-8.08zm34.1 0v8.95h12.2v4H228v12.41h-4.48v-29.36h18.76v4H228zm39.18 25.36L261 331.33h-5.57v12.37h-4.45v-29.36h11.38c5.57 0 9.11 3.59 9.11 8.58a7.71 7.71 0 0 1-5.85 7.79l6.76 13h-5.2zm-5.16-25.36h-6.6v9.2h6.6c3 0 5-1.69 5-4.58s-2.03-4.62-5-4.62zm19.26 25.36v-29.36h18.76v4h-14.3v8.58h12.2v4h-12.2v8.82h14.31v4h-18.77zm46.72 1.32l-2.93-2.93a10.61 10.61 0 0 1-6.14 1.86 10.5 10.5 0 0 1-7.71-3.13c-2.89-2.89-2.85-6.14-2.85-11.79s0-8.91 2.85-11.79a11.1 11.1 0 0 1 15.46 0c2.89 2.89 2.8 6.14 2.8 11.79 0 5 0 8-1.9 10.68l2.94 2.83zm-4.7-25.11a6.17 6.17 0 0 0-8.74 0c-1.44 1.57-1.73 3.22-1.73 9.11s.29 7.54 1.73 9.11a6 6 0 0 0 4.37 1.81 5.13 5.13 0 0 0 3-.95l-3.09-3.09 2.47-2.47 2.85 2.84c.74-1.48.87-3.46.87-7.26 0-5.89-.28-7.54-1.73-9.1zm26.15 24.03c-6 0-10.51-4.08-10.51-10.14v-19.46h4.45v19.25c0 3.92 2.39 6.35 6.06 6.35s6.1-2.43 6.1-6.35v-19.25H360v19.46c0 6.06-4.57 10.14-10.55 10.14zm21.07-.24v-29.36h18.76v4h-14.3v8.58h12.2v4h-12.2v8.82h14.31v4h-18.77zm46.18 0l-13.56-20.66v20.66h-4.45v-29.36h4.08l13.57 20.61v-20.61h4.45v29.36h-4.08zm24.55.24a10.64 10.64 0 0 1-7.71-3.13c-2.89-2.89-2.84-6.14-2.84-11.79s0-8.91 2.84-11.79a10.64 10.64 0 0 1 7.71-3.13c5.4 0 9.44 3.17 10.47 9h-4.54c-.7-3-2.68-5-5.94-5a5.87 5.87 0 0 0-4.33 1.77c-1.44 1.57-1.77 3.26-1.77 9.15s.33 7.59 1.77 9.15a5.87 5.87 0 0 0 4.33 1.77c3.26 0 5.28-2.06 6-5h4.49c-1 5.83-5.21 9-10.48 9zm28.9-12.32v12.08h-4.45v-12.08l-8.78-17.28h4.86l6.14 12.9 6.14-12.9h4.86zM335.97 72.48a21.36 21.36 0 0 0-30.2 0l-48.25 48.29a25.52 25.52 0 0 1-23.24 6.94l23.8 23.83a21.33 21.33 0 0 0 28.86.06l49-49a25.56 25.56 0 0 1 23.28-6.91z"/><path class="a" d="M335.98 6.24a21.36 21.36 0 0 0-30.2 0l-81.4 81.4a25.52 25.52 0 0 1-23.24 6.94l23.83 23.83a21.33 21.33 0 0 0 28.86.06l82.1-82.1a25.52 25.52 0 0 1 23.24-6.95zm0 132.63a21.36 21.36 0 0 0-30.2 0l-15.09 15.09a25.52 25.52 0 0 1-23.24 6.94l23.83 23.83a21.36 21.36 0 0 0 28.89.08l15.78-15.78a25.53 25.53 0 0 1 23.25-6.94zm-193.03 60.45a21.36 21.36 0 0 0 30.2 0l48.29-48.29a25.52 25.52 0 0 1 23.24-6.94l-23.83-23.83a21.33 21.33 0 0 0-28.86-.06l-49 49a25.56 25.56 0 0 1-23.28 6.91z"/><path class="a" d="M142.95 265.54a21.36 21.36 0 0 0 30.2 0l81.4-81.4a25.52 25.52 0 0 1 23.24-6.94l-23.83-23.83a21.33 21.33 0 0 0-28.86-.06l-82.1 82.1a25.52 25.52 0 0 1-23.24 6.95z"/><path class="a" d="M142.95 265.54a21.36 21.36 0 0 0 30.2 0l81.4-81.4a25.52 25.52 0 0 1 23.24-6.94l-23.83-23.83a21.33 21.33 0 0 0-28.86-.06l-82.1 82.1a25.52 25.52 0 0 1-23.24 6.95zm0-132.61a21.36 21.36 0 0 0 30.2 0l15.09-15.09a25.52 25.52 0 0 1 23.28-6.95l-23.83-23.83a21.36 21.36 0 0 0-28.89-.08l-15.78 15.78a25.53 25.53 0 0 1-23.25 6.94z"/></svg>