<svg xmlns="http://www.w3.org/2000/svg" class="hide"><symbol id="arrow" viewBox="0 0 32 32"><title>arrow</title><g fill-rule="evenodd"><path d="M17.556 6.556L16 5 5 16l11 11 1.556-1.556L8.11 16l9.446-9.444z"/><path d="M23.556 6.556L22 5 11 16l11 11 1.556-1.556L14.11 16l9.446-9.444z"/></g></symbol><symbol id="facebook" viewBox="0 0 32 32"><title>facebook</title><g fill-rule="evenodd"><path d="M17.584 12.958v-2.543-.17c0-1.023.224-1.64 1.617-1.64 1.292 0 2.475.008 2.475.008l.09-3.47S20.608 5 19.042 5c-3.87 0-5.55 2.29-5.55 4.783v3.175h-2.84v3.716h2.84V27h4.092V16.674H21.6l.186-3.716h-4.202z"/></g></symbol><symbol id="feed" viewBox="0 0 32 32"><title>feed</title><g fill-rule="evenodd"><path d="M7 13.333V16.5c5.24 0 9.5 4.26 9.5 9.5h3.167c0-6.995-5.672-12.667-12.667-12.667zM7 7v3.167c8.73 0 15.833 7.103 15.833 15.833H26C26 15.507 17.493 7 7 7zm2.375 14.25C8.062 21.25 7 22.314 7 23.625 7 24.935 8.062 26 9.375 26s2.375-1.064 2.375-2.375c0-1.31-1.062-2.375-2.375-2.375z"/></g></symbol><symbol id="tumblr" viewBox="0 0 32 32"><title>tumblr</title><g fill-rule="evenodd"><path d="M16.947 5v5.814h5.457v3.61h-5.457v5.897c0 1.335.07 2.19.213 2.57.14.377.404.68.787.906.51.306 1.09.458 1.745.458 1.163 0 2.32-.378 3.474-1.135v3.627c-.984.46-1.874.786-2.67.974-.794.186-1.655.28-2.582.28-1.05 0-1.98-.133-2.79-.398-.808-.264-1.496-.645-2.066-1.135-.572-.49-.966-1.013-1.186-1.567-.22-.554-.33-1.355-.33-2.407v-8.07H9V11.17c.904-.295 1.677-.716 2.32-1.264.647-.548 1.163-1.205 1.552-1.975.39-.766.657-1.742.805-2.93h3.27z"/></g></symbol><symbol id="twitter" viewBox="0 0 32 32"><title>twitter</title><g fill-rule="evenodd"><path d="M24.41 10.292c.93-.562 1.646-1.454 1.982-2.516-.87.52-1.837.9-2.863 1.103-.825-.884-2-1.437-3.298-1.437-2.492 0-4.513 2.037-4.513 4.548 0 .357.04.704.117 1.036-3.75-.19-7.078-2-9.305-4.75-.388.67-.61 1.454-.61 2.287 0 1.577.794 2.968 2.006 3.784-.74-.024-1.435-.228-2.045-.57v.06c0 2.204 1.554 4.04 3.62 4.46-.378.1-.776.157-1.187.157-.293 0-.574-.032-.85-.08.575 1.807 2.242 3.12 4.216 3.155-1.543 1.22-3.492 1.946-5.604 1.946-.365 0-.724-.022-1.078-.065 1.997 1.293 4.37 2.045 6.917 2.045 8.304 0 12.845-6.93 12.845-12.94 0-.195-.006-.39-.015-.586.88-.642 1.648-1.442 2.253-2.354-.81.363-1.678.606-2.59.716z"/></g></symbol><symbol id="youtube" viewBox="0 0 32 32"><title>youtube</title><path d="M22.286 9H9.714C7.11 9 5 11.014 5 13.5v6C5 21.986 7.11 24 9.714 24h12.572C24.888 24 27 21.986 27 19.5v-6c0-2.486-2.112-4.5-4.714-4.5zm-9.43 12v-9l7.858 4.5-7.857 4.5z" fill-rule="evenodd"/></symbol></svg>