<?xml version="1.0" encoding="UTF-8" standalone="no"?><svg xmlns="http://www.w3.org/2000/svg" xmlns:xlink="http://www.w3.org/1999/xlink"><symbol viewBox="0 0 32 32" id="arrow"><title>arrow</title><g fill="none" fill-rule="evenodd"><path d="M17.556 6.556L16 5 5 16l11 11 1.556-1.556L8.11 16l9.446-9.444z" fill="#000"/><path d="M23.556 6.556L22 5 11 16l11 11 1.556-1.556L14.11 16l9.446-9.444z" fill="#000"/></g></symbol><symbol viewBox="0 0 32 32" id="facebook"><title>facebook</title><g fill="none" fill-rule="evenodd"><path d="M17.584 12.958v-2.543-.17c0-1.023.224-1.64 1.617-1.64 1.292 0 2.475.008 2.475.008l.09-3.47S20.608 5 19.042 5c-3.87 0-5.55 2.29-5.55 4.783v3.175h-2.84v3.716h2.84V27h4.092V16.674H21.6l.186-3.716h-4.202z" fill="#000"/></g></symbol><symbol viewBox="0 0 32 32" id="feed"><title>feed</title><g fill="none" fill-rule="evenodd"><path d="M7 13.333V16.5c5.24 0 9.5 4.26 9.5 9.5h3.167c0-6.995-5.672-12.667-12.667-12.667zM7 7v3.167c8.73 0 15.833 7.103 15.833 15.833H26C26 15.507 17.493 7 7 7zm2.375 14.25a2.375 2.375 0 1 0 0 4.75 2.375 2.375 0 0 0 0-4.75z" fill="#000"/></g></symbol><symbol viewBox="0 0 32 32" id="tumblr"><title>tumblr</title><g fill="none" fill-rule="evenodd"><path d="M16.947 5v5.814h5.457v3.61h-5.457v5.897c0 1.335.07 2.19.213 2.57.14.377.404.68.787.906.51.306 1.09.458 1.745.458 1.163 0 2.32-.378 3.474-1.135v3.627c-.984.46-1.874.786-2.67.974-.794.186-1.655.28-2.582.28-1.05 0-1.98-.133-2.79-.398-.808-.264-1.496-.645-2.066-1.135-.572-.49-.966-1.013-1.186-1.567-.22-.554-.33-1.355-.33-2.407v-8.07H9V11.17c.904-.295 1.677-.716 2.32-1.264a6.253 6.253 0 0 0 1.552-1.975c.39-.766.657-1.742.805-2.93h3.27z" fill="#000"/></g></symbol><symbol viewBox="0 0 32 32" id="twitter"><title>twitter</title><g fill="none" fill-rule="evenodd"><path d="M24.41 10.292a4.552 4.552 0 0 0 1.982-2.516c-.87.52-1.837.9-2.863 1.103a4.496 4.496 0 0 0-3.298-1.437c-2.492 0-4.513 2.037-4.513 4.548 0 .357.04.704.117 1.036-3.75-.19-7.078-2-9.305-4.75a4.563 4.563 0 0 0-.61 2.287 4.55 4.55 0 0 0 2.006 3.784 4.482 4.482 0 0 1-2.045-.57v.06a4.54 4.54 0 0 0 3.62 4.46 4.52 4.52 0 0 1-2.037.076 4.518 4.518 0 0 0 4.216 3.156A9.005 9.005 0 0 1 5 23.41a12.687 12.687 0 0 0 6.917 2.045c8.304 0 12.845-6.93 12.845-12.94 0-.195-.006-.39-.015-.586A9.214 9.214 0 0 0 27 9.575a8.913 8.913 0 0 1-2.59.716z" fill="#000"/></g></symbol><symbol viewBox="0 0 32 32" id="youtube"><title>youtube</title><path d="M22.286 9H9.714C7.11 9 5 11.014 5 13.5v6C5 21.986 7.11 24 9.714 24h12.572C24.888 24 27 21.986 27 19.5v-6c0-2.486-2.112-4.5-4.714-4.5zm-9.43 12v-9l7.858 4.5-7.857 4.5z" fill="#000" fill-rule="evenodd"/></symbol></svg>