<svg xmlns="http://www.w3.org/2000/svg" class="hide"><symbol id="arrow" viewBox="0 0 32 32"><title>arrow</title><g fill-rule="evenodd"><path d="M17.556 6.556L16 5 5 16l11 11 1.556-1.556L8.11 16l9.445-9.444z"/><path d="M23.556 6.556L22 5 11 16l11 11 1.556-1.556L14.11 16l9.445-9.444z"/></g></symbol><symbol id="caret" viewBox="0 0 32 32"><title>caret</title><g fill-rule="evenodd"><path d="M24.27 10.722l2.521 2.521L16.034 24 5.278 13.243l2.521-2.52 8.235 8.235 8.236-8.236z"/></g></symbol><symbol id="facebook" viewBox="0 0 32 32"><title>facebook</title><g fill-rule="evenodd"><path d="M17.584 12.958v-2.543-.171c0-1.022.224-1.64 1.617-1.64 1.29 0 2.474.009 2.474.009l.09-3.47S20.608 5 19.042 5c-3.87 0-5.55 2.291-5.55 4.783v3.175h-2.84v3.716h2.84V27h4.092V16.674h4.017l.185-3.716h-4.202z"/></g></symbol><symbol id="feed" viewBox="0 0 32 32"><title>feed</title><g fill-rule="evenodd"><path d="M7 13.333V16.5c5.24 0 9.5 4.26 9.5 9.5h3.167c0-6.995-5.672-12.667-12.667-12.667zM7 7v3.167c8.73 0 15.833 7.103 15.833 15.833H26C26 15.507 17.493 7 7 7zm2.375 14.25a2.375 2.375 0 1 0 0 4.75 2.375 2.375 0 0 0 0-4.75z"/></g></symbol><symbol id="tumblr" viewBox="0 0 32 32"><title>tumblr</title><g fill-rule="evenodd"><path d="M16.947 5v5.814h5.457v3.61h-5.457v5.897c0 1.334.07 2.19.213 2.57.14.376.404.678.787.905.51.306 1.09.458 1.745.458 1.163 0 2.321-.378 3.474-1.135v3.628c-.984.461-1.874.786-2.67.974-.794.185-1.655.279-2.582.279-1.051 0-1.981-.133-2.79-.398-.808-.264-1.496-.645-2.066-1.135-.572-.491-.966-1.013-1.186-1.567-.22-.554-.33-1.355-.33-2.407v-8.07H9V11.17c.904-.294 1.677-.715 2.321-1.263a6.253 6.253 0 0 0 1.551-1.975c.39-.767.657-1.743.805-2.931h3.27z"/></g></symbol><symbol id="twitter" viewBox="0 0 32 32"><title>twitter</title><g fill-rule="evenodd"><path d="M24.409 10.292a4.552 4.552 0 0 0 1.983-2.516c-.87.52-1.837.9-2.863 1.103a4.496 4.496 0 0 0-3.297-1.436c-2.492 0-4.513 2.037-4.513 4.548 0 .356.04.703.118 1.035-3.751-.19-7.078-2-9.305-4.751a4.563 4.563 0 0 0-.611 2.288c0 1.577.795 2.968 2.007 3.784a4.482 4.482 0 0 1-2.045-.569v.059a4.54 4.54 0 0 0 3.62 4.459 4.52 4.52 0 0 1-2.037.077 4.518 4.518 0 0 0 4.216 3.156A9.005 9.005 0 0 1 5 23.41a12.687 12.687 0 0 0 6.917 2.044c8.304 0 12.845-6.93 12.845-12.939 0-.196-.006-.392-.015-.587A9.214 9.214 0 0 0 27 9.576a8.913 8.913 0 0 1-2.591.716z"/></g></symbol><symbol id="youtube" viewBox="0 0 32 32"><title>youtube</title><path d="M22.286 9H9.714C7.11 9 5 11.014 5 13.5v6C5 21.986 7.11 24 9.714 24h12.572C24.888 24 27 21.986 27 19.5v-6c0-2.486-2.112-4.5-4.714-4.5zm-9.429 12v-9l7.857 4.5-7.857 4.5z" fill-rule="evenodd"/></symbol></svg>