<svg xmlns="http://www.w3.org/2000/svg" viewBox="0 0 478.94 345.02"><defs><style>.a{fill:#ed127a;}</style></defs><title>feminist-frequency</title><path class="a" d="M21.93,420.8v8.95h12.2v4H21.93v12.41H17.48V416.8H36.24v4H21.93Z" transform="translate(-17.48 -102.46)"/><path class="a" d="M44.9,446.16V416.8H63.66v4H49.36v8.58h12.2v4H49.36v8.82H63.66v4H44.9Z" transform="translate(-17.48 -102.46)"/><path class="a" d="M94.51,446.16V426.53l-6.76,14.31h-3.3l-6.93-14.31v19.63H73.07V416.8h4.45l8.57,18.26,8.41-18.26H99v29.36H94.51Z" transform="translate(-17.48 -102.46)"/><path class="a" d="M109.89,446.16V416.8h4.45v29.36h-4.45Z" transform="translate(-17.48 -102.46)"/><path class="a" d="M143.33,446.16L129.77,425.5v20.66h-4.45V416.8h4.08L143,437.42V416.8h4.45v29.36h-4.08Z" transform="translate(-17.48 -102.46)"/><path class="a" d="M158.39,446.16V416.8h4.45v29.36h-4.45Z" transform="translate(-17.48 -102.46)"/><path class="a" d="M181.6,446.4c-4.41,0-7.59-1-10.39-3.88l3-2.93a9.69,9.69,0,0,0,7.5,2.8c3.84,0,6.06-1.65,6.06-4.49a4,4,0,0,0-1.15-3.05,5.11,5.11,0,0,0-3.22-1.24l-3.46-.49a10,10,0,0,1-5.57-2.35,7.3,7.3,0,0,1-2.14-5.61c0-5.11,3.71-8.62,9.81-8.62a12.22,12.22,0,0,1,9.11,3.34l-2.84,2.8a8.62,8.62,0,0,0-6.39-2.27c-3.46,0-5.36,2-5.36,4.58a3.49,3.49,0,0,0,1.11,2.72,6.56,6.56,0,0,0,3.3,1.36l3.34,0.49c2.72,0.41,4.25,1.07,5.48,2.19a7.68,7.68,0,0,1,2.39,6C192.16,443.19,187.75,446.4,181.6,446.4Z" transform="translate(-17.48 -102.46)"/><path class="a" d="M211.38,420.8v25.36h-4.45V420.8h-8.08v-4h20.61v4h-8.08Z" transform="translate(-17.48 -102.46)"/><path class="a" d="M245.48,420.8v8.95h12.2v4h-12.2v12.41H241V416.8h18.76v4H245.48Z" transform="translate(-17.48 -102.46)"/><path class="a" d="M284.66,446.16l-6.18-12.37h-5.57v12.37h-4.45V416.8h11.38c5.57,0,9.11,3.59,9.11,8.58a7.71,7.71,0,0,1-5.85,7.79l6.76,13h-5.2ZM279.5,420.8h-6.6V430h6.6c3,0,5-1.69,5-4.58S282.47,420.8,279.5,420.8Z" transform="translate(-17.48 -102.46)"/><path class="a" d="M298.76,446.16V416.8h18.76v4H303.22v8.58h12.2v4h-12.2v8.82h14.31v4H298.76Z" transform="translate(-17.48 -102.46)"/><path class="a" d="M345.48,447.48l-2.93-2.93a10.61,10.61,0,0,1-6.14,1.86,10.5,10.5,0,0,1-7.71-3.13c-2.89-2.89-2.85-6.14-2.85-11.79s0-8.91,2.85-11.79a11.1,11.1,0,0,1,15.46,0c2.89,2.89,2.8,6.14,2.8,11.79,0,5,0,8-1.9,10.68L348,445Zm-4.7-25.11a6.17,6.17,0,0,0-8.74,0c-1.44,1.57-1.73,3.22-1.73,9.11s0.29,7.54,1.73,9.11a6,6,0,0,0,4.37,1.81,5.13,5.13,0,0,0,3-.95l-3.09-3.09,2.47-2.47,2.85,2.84c0.74-1.48.87-3.46,0.87-7.26C342.51,425.58,342.23,423.93,340.78,422.37Z" transform="translate(-17.48 -102.46)"/><path class="a" d="M366.93,446.4c-6,0-10.51-4.08-10.51-10.14V416.8h4.45v19.25c0,3.92,2.39,6.35,6.06,6.35s6.1-2.43,6.1-6.35V416.8h4.45v19.46C377.48,442.32,372.91,446.4,366.93,446.4Z" transform="translate(-17.48 -102.46)"/><path class="a" d="M388,446.16V416.8h18.76v4H392.46v8.58h12.2v4h-12.2v8.82h14.31v4H388Z" transform="translate(-17.48 -102.46)"/><path class="a" d="M434.18,446.16L420.62,425.5v20.66h-4.45V416.8h4.08l13.57,20.61V416.8h4.45v29.36h-4.08Z" transform="translate(-17.48 -102.46)"/><path class="a" d="M458.73,446.4a10.64,10.64,0,0,1-7.71-3.13c-2.89-2.89-2.84-6.14-2.84-11.79s0-8.91,2.84-11.79a10.64,10.64,0,0,1,7.71-3.13c5.4,0,9.44,3.17,10.47,9h-4.54c-0.7-3-2.68-5-5.94-5a5.87,5.87,0,0,0-4.33,1.77c-1.44,1.57-1.77,3.26-1.77,9.15s0.33,7.59,1.77,9.15a5.87,5.87,0,0,0,4.33,1.77c3.26,0,5.28-2.06,6-5h4.49C468.21,443.23,464,446.4,458.73,446.4Z" transform="translate(-17.48 -102.46)"/><path class="a" d="M487.63,434.08v12.08h-4.45V434.08L474.4,416.8h4.86l6.14,12.9,6.14-12.9h4.86Z" transform="translate(-17.48 -102.46)"/><path class="a" d="M353.45,174.94a21.36,21.36,0,0,0-30.2,0L275,223.23a25.52,25.52,0,0,1-23.24,6.94L275.56,254a21.33,21.33,0,0,0,28.86.06l49-49h0a25.56,25.56,0,0,1,23.28-6.91Z" transform="translate(-17.48 -102.46)"/><path class="a" d="M353.46,108.7a21.36,21.36,0,0,0-30.2,0l-81.4,81.4a25.52,25.52,0,0,1-23.24,6.94l23.83,23.83a21.33,21.33,0,0,0,28.86.06l82.1-82.1,0,0a25.52,25.52,0,0,1,23.24-6.95Z" transform="translate(-17.48 -102.46)"/><path class="a" d="M353.46,241.33a21.36,21.36,0,0,0-30.2,0l-15.09,15.09a25.52,25.52,0,0,1-23.24,6.94l23.83,23.83a21.36,21.36,0,0,0,28.89.08l15.78-15.78h0a25.53,25.53,0,0,1,23.25-6.94Z" transform="translate(-17.48 -102.46)"/><path class="a" d="M160.43,301.78a21.36,21.36,0,0,0,30.2,0l48.29-48.29a25.52,25.52,0,0,1,23.24-6.94l-23.83-23.83a21.33,21.33,0,0,0-28.86-.06l-49,49h0a25.56,25.56,0,0,1-23.28,6.91Z" transform="translate(-17.48 -102.46)"/><path class="a" d="M160.43,368a21.36,21.36,0,0,0,30.2,0l81.4-81.4a25.52,25.52,0,0,1,23.24-6.94l-23.83-23.83a21.33,21.33,0,0,0-28.86-.06l-82.1,82.1,0,0a25.52,25.52,0,0,1-23.24,6.95Z" transform="translate(-17.48 -102.46)"/><path class="a" d="M160.43,368a21.36,21.36,0,0,0,30.2,0l81.4-81.4a25.52,25.52,0,0,1,23.24-6.94l-23.83-23.83a21.33,21.33,0,0,0-28.86-.06l-82.1,82.1,0,0a25.52,25.52,0,0,1-23.24,6.95Z" transform="translate(-17.48 -102.46)"/><path class="a" d="M160.43,235.39a21.36,21.36,0,0,0,30.2,0l15.09-15.09A25.52,25.52,0,0,1,229,213.35l-23.83-23.83a21.36,21.36,0,0,0-28.89-.08l-15.78,15.78h0a25.53,25.53,0,0,1-23.25,6.94Z" transform="translate(-17.48 -102.46)"/></svg>
