<?xml version="1.0" encoding="UTF-8" standalone="no"?>
<svg width="32px" height="32px" viewBox="0 0 32 32" version="1.1" xmlns="http://www.w3.org/2000/svg" xmlns:xlink="http://www.w3.org/1999/xlink" xmlns:sketch="http://www.bohemiancoding.com/sketch/ns">
    <!-- Generator: Sketch 3.4.4 (17249) - http://www.bohemiancoding.com/sketch -->
    <title>facebook</title>
    <desc>Created with Sketch.</desc>
    <defs></defs>
    <g id="Page-1" stroke="none" stroke-width="1" fill="none" fill-rule="evenodd" sketch:type="MSPage">
        <g id="facebook" sketch:type="MSArtboardGroup">
            <g id="Guides" sketch:type="MSLayerGroup"></g>
            <g id="Facebook" sketch:type="MSLayerGroup" transform="translate(10.000000, 5.000000)" fill="#000000">
                <path d="M7.584,7.95771429 L7.584,5.41514286 C7.584,5.43242857 7.584,5.39628571 7.584,5.24385714 C7.584,4.22242857 7.80818182,3.60485714 9.20072727,3.60485714 C10.4918182,3.60485714 11.6749091,3.61271429 11.6749091,3.61271429 L11.7649091,0.143 C11.7649091,0.143 10.608,0 9.042,0 C5.172,1.04678171e-15 3.49145455,2.29114286 3.49145455,4.78342857 L3.49145455,7.95771429 L0.652363636,7.95771429 L0.652363636,11.6741429 L3.49145455,11.6741429 L3.49145455,22 L7.584,22 L7.584,11.6741429 L11.6012727,11.6741429 L11.7861818,7.95771429 L7.584,7.95771429 L7.584,7.95771429 Z" id="Shape" sketch:type="MSShapeGroup"></path>
            </g>
        </g>
    </g>
</svg>