<?xml version="1.0" encoding="UTF-8" standalone="no"?>
<svg width="32px" height="32px" viewBox="0 0 32 32" version="1.1" xmlns="http://www.w3.org/2000/svg" xmlns:xlink="http://www.w3.org/1999/xlink" xmlns:sketch="http://www.bohemiancoding.com/sketch/ns">
    <!-- Generator: Sketch 3.4.4 (17249) - http://www.bohemiancoding.com/sketch -->
    <title>tumblr</title>
    <desc>Created with Sketch.</desc>
    <defs></defs>
    <g id="Page-1" stroke="none" stroke-width="1" fill="none" fill-rule="evenodd" sketch:type="MSPage">
        <g id="tumblr" sketch:type="MSArtboardGroup">
            <g id="Guides" sketch:type="MSLayerGroup"></g>
            <g id="Tumblr" sketch:type="MSLayerGroup" transform="translate(9.000000, 5.000000)" fill="#000000">
                <path d="M7.9465,0 L7.9465,5.81407143 L13.4040714,5.81407143 L13.4040714,9.42342857 L7.9465,9.42342857 L7.9465,15.3212857 C7.9465,16.6552857 8.01714286,17.5112143 8.16007143,17.8907143 C8.29971429,18.2669286 8.56421429,18.5692143 8.947,18.7959286 C9.45628571,19.1015 10.0362143,19.2542857 10.6917143,19.2542857 C11.8548571,19.2542857 13.0130714,18.8764286 14.1663571,18.1190714 L14.1663571,21.7465 C13.1822857,22.2081429 12.2918571,22.5334286 11.4967143,22.7207143 C10.7015714,22.9063571 9.84071429,23 8.91414286,23 C7.86271429,23 6.93285714,22.8669286 6.12457143,22.6024286 C5.31628571,22.3379286 4.62792857,21.9567857 4.05785714,21.4672143 C3.48614286,20.976 3.09185714,20.4535714 2.87171429,19.8999286 C2.65157143,19.3462857 2.5415,18.5445714 2.5415,17.4931429 L2.5415,9.42342857 L-8.8817842e-16,9.42342857 L-8.8817842e-16,6.16892857 C0.903571429,5.87485714 1.67735714,5.45428571 2.32135714,4.90557143 C2.967,4.3585 3.48285714,3.70135714 3.87221429,2.93085714 C4.26157143,2.16364286 4.52935714,1.18778571 4.67721429,0 L7.9465,0 L7.9465,0 Z" id="Shape" sketch:type="MSShapeGroup"></path>
            </g>
        </g>
    </g>
</svg>